<?xml version="1.0" encoding="UTF-8"?><svg id="a" xmlns="http://www.w3.org/2000/svg" viewBox="0 0 138 138"><path d="M106.83,114.13v10.57l-6.64-3.83c.83-.04,1.63-.04,2.42,0V38.43L56.28,11.68c-6.16-3.56-15.47-3.94-20.8-.86-1.22.71-2.13,1.53-2.73,2.43-1.04-1.31-1.58-2.69-1.58-4.04,0-2.07,1.26-4.04,3.81-5.51,4.27-2.46,10.95-2.83,16.77-1.23,1.79.49,3.51,1.17,5.04,2.03l50.03,28.88v80.75Z" style="fill:#023452; stroke:#023452; stroke-linejoin:round;"/><path d="M100.19,120.87c-4.87.23-10.27,1.82-13.79,5.05V45.17l-.57-.33c3.94-4.51,10.68-6.72,16.77-6.42v82.44c-.79-.04-1.59-.04-2.42,0Z" style="fill:#678597; stroke:#023452; stroke-linejoin:round;"/><path d="M56.28,11.68l46.32,26.75c-6.09-.3-12.83,1.91-16.77,6.42l-49.26-28.44c-1.65-.95-2.92-2.02-3.82-3.15.6-.91,1.51-1.73,2.73-2.43,5.33-3.08,14.64-2.69,20.8.86Z" style="fill:#c2ced6; stroke:#023452; stroke-linejoin:round; stroke-width:2px;"/><path d="M32.75,13.25c.89,1.13,2.17,2.2,3.82,3.15l49.83,28.77v91.33l-49.83-28.78c-3.56-2.06-5.39-4.69-5.39-7.19V9.21c0,1.35.53,2.73,1.58,4.04Z" style="fill:#fff;"/><path d="M56.8,4.5c-1.53-.86-3.24-1.54-5.04-2.03-5.82-1.6-12.5-1.24-16.77,1.23-2.55,1.47-3.81,3.45-3.81,5.51,0,1.35.53,2.73,1.58,4.04.9,1.13,2.17,2.2,3.82,3.15l49.83,28.77v91.33l-49.83-28.78c-3.56-2.06-5.39-4.69-5.39-7.19V9.21" style="fill:none; stroke:#023452; stroke-linecap:round; stroke-linejoin:round; stroke-width:2px;"/><polyline points="100.18 120.87 100.19 120.87 106.83 124.7 106.83 33.38 57.48 4.9" style="fill:none; stroke:#023452; stroke-linecap:round; stroke-linejoin:round; stroke-width:2px;"/><path d="M32.74,13.26s0,0,0,0c.6-.91,1.51-1.73,2.73-2.43,5.33-3.08,14.64-2.69,20.8.86l46.32,26.75c-6.09-.3-12.83,1.91-16.77,6.42" style="fill:none; stroke:#023452; stroke-linecap:round; stroke-linejoin:round; stroke-width:2px;"/><path d="M102.6,38.43v82.44c-.79-.04-1.59-.03-2.42,0-4.87.24-10.27,1.82-13.79,5.05" style="fill:none; stroke:#023452; stroke-linecap:round; stroke-linejoin:round; stroke-width:2px;"/><polygon points="51.17 90.17 51.17 84.26 56.18 87.15 56.18 71.91 51.39 69.15 51.39 63.3 61.85 69.34 61.85 90.42 66.41 93.06 66.41 98.96 51.17 90.17" style="fill:#f47d20; stroke:#023452; stroke-linejoin:round;"/><path d="M63.58,58.05c0-3.86-2.35-8.34-5.24-10.01-2.89-1.67-5.24.1-5.24,3.96s2.35,8.34,5.24,10.01c2.89,1.67,5.24-.1,5.24-3.96Z" style="fill:#f47d20; stroke:#023452; stroke-linejoin:round;"/></svg>