<?xml version="1.0" encoding="UTF-8"?><svg id="a" xmlns="http://www.w3.org/2000/svg" viewBox="0 0 138 138"><path d="M113.5,93.63v12.83c0,4.64-3.07,9.29-9.2,12.83l-20.16,11.64c-2.55,1.47-6.74,1.41-9.16-.17-1.02-.67-1.51-1.5-1.51-2.34v-12.83h0c0,.83.48,1.66,1.5,2.33,2.42,1.59,6.61,1.65,9.16.18l20.16-11.64c6.13-3.54,9.2-8.19,9.2-12.83Z" style="fill:#023452; stroke:#023452; stroke-linejoin:round;"/><path d="M49.48,117.61l-6.2,3.58c-1.23.7-2.83,1.06-4.44,1.06s-3.21-.36-4.44-1.06c-1.23-.7-1.84-1.63-1.84-2.56s.61-1.86,1.84-2.56l2.71-1.56c-1.22.71-2.83,1.06-4.43,1.06s-3.21-.35-4.44-1.06c-1.23-.71-1.84-1.63-1.84-2.56s.61-1.85,1.84-2.56l6.96-4.02c-1.22.7-2.83,1.06-4.44,1.06s-3.21-.36-4.44-1.06c-1.15-.66-1.76-1.52-1.83-2.39-.08-.98.53-1.98,1.83-2.73l16.22-9.36-.07-.04,17.38-10.03c6.13-3.54,14.17-5.31,22.21-5.31s16.08,1.77,22.22,5.31c6.13,3.54,9.2,8.19,9.2,12.83s-3.07,9.28-9.2,12.83l-20.16,11.64c-2.55,1.47-6.74,1.41-9.16-.18-1.02-.67-1.5-1.5-1.5-2.33,0-.98.66-1.97,1.94-2.7l-16.84,9.72c-1.22.71-2.83,1.06-4.44,1.06s-3.21-.35-4.44-1.06c-1.22-.71-1.83-1.63-1.83-2.56,0-.87.54-1.74,1.61-2.43Z" style="fill:#c2ced6; stroke:#023452; stroke-linejoin:round; stroke-width:2px;"/><path d="M73.47,115.58v11.25l-14.9,8.6c-2.45,1.42-6.42,1.42-8.87,0-1.22-.7-1.83-1.63-1.83-2.56v-12.83c0,.93.61,1.85,1.83,2.56,1.22.71,2.83,1.06,4.44,1.06s3.21-.35,4.44-1.06l16.84-9.72c-1.28.73-1.94,1.72-1.94,2.7h0Z" style="fill:#023452; stroke:#023452; stroke-linejoin:round;"/><path d="M43.28,121.19l6.2-3.58c-1.07.69-1.61,1.56-1.61,2.43v11.33l-4.59,2.65c-2.45,1.42-6.42,1.42-8.87,0-1.22-.7-1.84-1.63-1.84-2.56v-12.84c0,.93.61,1.86,1.84,2.56,1.23.7,2.83,1.06,4.44,1.06s3.21-.36,4.44-1.06Z" style="fill:#023452; stroke:#023452; stroke-linejoin:round;"/><path d="M37.12,114.5l-2.71,1.56c-1.23.7-1.84,1.63-1.84,2.56v9.77c-1.56-.01-3.13-.37-4.32-1.06-1.23-.72-1.85-1.64-1.84-2.58v-12.82c0,.93.61,1.85,1.84,2.56,1.22.71,2.83,1.06,4.44,1.06s3.21-.35,4.43-1.06Z" style="fill:#023452; stroke:#023452; stroke-linejoin:round;"/><path d="M35.21,105.36l-6.96,4.02c-1.23.71-1.84,1.63-1.84,2.56v6.29l-.07-.03c-1.23-.72-1.85-1.65-1.83-2.58v-12.64c.08.87.69,1.73,1.83,2.39,1.22.7,2.83,1.06,4.44,1.06s3.21-.36,4.44-1.06Z" style="fill:#023452; stroke:#023452; stroke-linejoin:round;"/><path d="M49.48,117.61c-1.07.69-1.61,1.56-1.61,2.43,0,.93.61,1.85,1.83,2.56,1.22.71,2.83,1.06,4.44,1.06s3.21-.35,4.44-1.06l16.84-9.72" style="fill:none; stroke:#023452; stroke-linecap:round; stroke-linejoin:round; stroke-width:2px;"/><line x1="71.4" y1="104.96" x2="49.48" y2="117.61" style="fill:none; stroke:#023452; stroke-linecap:round; stroke-linejoin:round; stroke-width:2px;"/><path d="M37.12,114.5l-2.71,1.56c-1.23.7-1.84,1.63-1.84,2.56s.61,1.86,1.84,2.56c1.23.7,2.83,1.06,4.44,1.06s3.21-.36,4.44-1.06l6.2-3.58" style="fill:none; stroke:#023452; stroke-linecap:round; stroke-linejoin:round; stroke-width:2px;"/><path d="M35.21,105.36l-6.96,4.02c-1.23.71-1.84,1.63-1.84,2.56s.61,1.85,1.84,2.56c1.22.71,2.83,1.06,4.44,1.06s3.21-.35,4.43-1.06l25.41-14.67" style="fill:none; stroke:#023452; stroke-linecap:round; stroke-linejoin:round; stroke-width:2px;"/><path d="M44.78,89.59l-18.44,10.64c-1.3.76-1.92,1.75-1.83,2.73.07.87.69,1.73,1.83,2.39,1.22.7,2.83,1.06,4.44,1.06s3.21-.36,4.44-1.06l18.44-10.64" style="fill:none; stroke:#023452; stroke-linecap:round; stroke-linejoin:round; stroke-width:2px;"/><path d="M96.62,91.87c-2.4.45-4.66,1.22-6.57,2.33-5.47,3.16-6.27,7.98-2.41,11.64l-12.22,7.06c-1.28.73-1.94,1.72-1.94,2.7,0,.83.48,1.66,1.5,2.33,2.42,1.59,6.61,1.65,9.16.18l20.16-11.64c6.13-3.54,9.2-8.19,9.2-12.83s-3.07-9.28-9.2-12.83c-6.13-3.54-14.18-5.31-22.22-5.31s-16.08,1.77-22.21,5.31l-17.38,10.03.07.04" style="fill:none; stroke:#023452; stroke-linecap:round; stroke-linejoin:round; stroke-width:2px;"/><path d="M73.47,115.58v12.84c0,.84.49,1.67,1.51,2.34,2.42,1.59,6.61,1.64,9.16.17l20.16-11.64c6.13-3.54,9.2-8.19,9.2-12.83v-12.83" style="fill:none; stroke:#023452; stroke-linecap:round; stroke-linejoin:round; stroke-width:2px;"/><path d="M73.47,126.83l-14.9,8.6c-2.45,1.42-6.42,1.42-8.87,0-1.22-.7-1.83-1.63-1.83-2.56v-12.83" style="fill:none; stroke:#023452; stroke-linecap:round; stroke-linejoin:round; stroke-width:2px;"/><path d="M47.87,131.37l-4.59,2.65c-2.45,1.42-6.42,1.42-8.87,0-1.22-.7-1.84-1.63-1.84-2.56v-12.84" style="fill:none; stroke:#023452; stroke-linecap:round; stroke-linejoin:round; stroke-width:2px;"/><path d="M32.57,128.4c-1.56-.01-3.13-.37-4.32-1.06-1.23-.72-1.85-1.64-1.84-2.58v-12.82" style="fill:none; stroke:#023452; stroke-linecap:round; stroke-linejoin:round; stroke-width:2px;"/><path d="M26.41,118.23l-.07-.03c-1.23-.72-1.85-1.65-1.83-2.58v-12.81" style="fill:none; stroke:#023452; stroke-linecap:round; stroke-linejoin:round; stroke-width:2px;"/><path d="M107.95,34.95c0,9.49-3.95,18.06-10.3,24.15-4.12,3.93-7.49,8.61-9.58,13.88l-.19-.08c-.68,1.14-1.81,2.21-3.39,3.12-5.53,3.19-14.5,3.19-20.03,0-1.58-.91-2.7-1.97-3.38-3.11l-.13.05c-2.09-5.26-5.46-9.93-9.58-13.86-6.35-6.09-10.31-14.66-10.31-24.15C41.07,16.48,56.05,1.51,74.51,1.5c18.47,0,33.44,14.98,33.44,33.45Z" style="fill:#fff;"/><path d="M85.9,80.7c-.38,2.13-.59,4.3-.65,6.49,0,1.25-.79,2.47-2.37,3.5-.24.15-.5.3-.77.44-1.05.54-2.26.95-3.55,1.22-1.29.27-2.67.41-4.04.41-2.75,0-5.5-.54-7.6-1.63-.38-.2-.72-.4-1.03-.62-1.42-.98-2.11-2.15-2.11-3.32-.05-2.19-.27-4.36-.65-6.5.58.97,1.53,1.88,2.88,2.65,4.7,2.71,12.33,2.71,17.04,0,1.34-.77,2.29-1.68,2.87-2.65Z" style="fill:#678597; stroke:#023452; stroke-linejoin:round;"/><path d="M82.11,91.13c.28-.14.54-.29.77-.44-.21,4.51-3.93,8.11-8.5,8.11s-8.38-3.69-8.5-8.28c.31.21.66.42,1.03.62,2.1,1.09,4.85,1.63,7.6,1.63,1.38,0,2.75-.14,4.04-.41,1.29-.27,2.5-.68,3.55-1.22Z" style="fill:#f47d20;"/><path d="M84.49,76.02c1.58-.91,2.71-1.98,3.39-3.12l.19.08c-.27.65-.51,1.32-.73,2-.54,1.66-.98,3.35-1.3,5.07h-.01l-.12.66c-.58.96-1.53,1.88-2.87,2.65-4.71,2.71-12.33,2.71-17.04,0-1.34-.77-2.3-1.68-2.88-2.65-.03-.22-.08-.43-.12-.65h-.01c-.33-1.72-.77-3.41-1.3-5.07-.22-.68-.47-1.36-.73-2.01l.13-.05c.68,1.14,1.8,2.2,3.38,3.11,5.53,3.19,14.5,3.19,20.03,0Z" style="fill:#678597; stroke:#023452; stroke-linejoin:round;"/><path d="M88.07,72.98c2.11-5.26,5.46-9.94,9.58-13.88,6.35-6.09,10.3-14.66,10.3-24.15,0-18.47-14.97-33.44-33.44-33.45-18.47,0-33.44,14.98-33.44,33.45,0,9.49,3.96,18.06,10.31,24.15,4.11,3.93,7.47,8.61,9.58,13.86.26.66.51,1.33.73,2.01.54,1.66.98,3.35,1.3,5.07h.01c.04.22.08.43.12.65.36,2.14.6,4.3.65,6.5,0,1.18.7,2.35,2.11,3.32.31.21.66.42,1.03.62,2.1,1.09,4.85,1.63,7.6,1.63,1.38,0,2.75-.14,4.04-.41,1.29-.27,2.5-.68,3.55-1.22.28-.14.54-.29.77-.44,1.58-1.03,2.37-2.25,2.37-3.5.05-2.19.26-4.36.65-6.49.04-.22.08-.44.12-.66h.01c.33-1.72.77-3.41,1.3-5.07.22-.68.46-1.35.73-2Z" style="fill:none; stroke:#023452; stroke-linecap:round; stroke-linejoin:round; stroke-width:2px;"/><path d="M61.02,27.74c2.26,1.3,2.26,5.91,4.52,7.21,2.26,1.31,2.26-3.31,4.51-2,2.26,1.3,2.26,5.91,4.51,7.22,2.26,1.3,2.26-3.31,4.52-2,2.25,1.3,2.25,5.91,4.51,7.21" style="fill:none; stroke:#f47d20; stroke-linecap:round; stroke-linejoin:round; stroke-width:3px;"/><path d="M85.91,80.69h-.01c-.58.98-1.53,1.89-2.87,2.66-4.71,2.71-12.33,2.71-17.04,0-1.34-.77-2.3-1.68-2.88-2.65" style="fill:none; stroke:#023452; stroke-linecap:round; stroke-linejoin:round; stroke-width:2px;"/><path d="M87.88,72.9c-.68,1.14-1.81,2.21-3.39,3.12-5.53,3.19-14.5,3.19-20.03,0-1.58-.91-2.7-1.97-3.38-3.11" style="fill:none; stroke:#023452; stroke-linecap:round; stroke-linejoin:round; stroke-width:2px;"/><path d="M82.88,90.69c-.21,4.51-3.93,8.11-8.5,8.11s-8.38-3.69-8.5-8.28" style="fill:none; stroke:#023452; stroke-linecap:round; stroke-linejoin:round; stroke-width:2px;"/></svg>