<?xml version="1.0" encoding="UTF-8"?><svg id="a" xmlns="http://www.w3.org/2000/svg" viewBox="0 0 138 138"><path d="M113.01,63.89v61.99c0,2.22-.77,3.77-1.95,4.39l-11.3,5.88c1.12-.65,1.82-2.16,1.82-4.32v-61.5l.13.07,11.3-6.52Z" style="fill:#678597; stroke:#023452; stroke-linejoin:round;"/><path d="M113.01,63.86v.03l-11.3,6.52-.13-.07v-9.04c0-3.95-2.4-8.53-5.36-10.25l-12.14-7.01c.04-.38.1-.77.18-1.17.53-2.65,1.9-5.48,3.75-7.8.11-.13.23-.27.35-.42.13-.15.25-.28.37-.42l6.21,3.59.67.39,2.85,1.64,2.86,1.65,6.33,3.65c2.95,1.7,5.35,6.29,5.35,10.23v8.47Z" style="fill:#678597; stroke:#023452; stroke-linejoin:round;"/><path d="M84.09,44.04c-.13,1.21-.06,2.3.21,3.12.11.35.24.61.39.83.15.21.32.37.49.47,1.59.84,2.2,2.81,1.34,4.41-.58,1.1-1.71,1.73-2.88,1.73-.51,0-1.04-.12-1.52-.39-1.09-.57-2.02-1.4-2.77-2.46-.53-.77-.96-1.63-1.26-2.58-.71-2.13-.79-4.76-.23-7.59.07-.35.15-.71.25-1.06.85-3.35,2.54-6.69,4.81-9.51.03-.05.07-.09.11-.13.13-.15.27-.33.41-.49,3.43-4.01,7.56-6.2,11.35-6.04,2.54.12,4.72,1.32,6.17,3.39,2.24,3.17,2.47,7.98.65,13.16-.07.2-.15.39-.25.56l-.03.04-2.86-1.65-2.85-1.64.03-.05c.99-3.17.73-5.61-.02-6.67-.29-.41-.63-.59-1.14-.62-1.21-.05-3.41.8-5.74,3.36-.13.14-.25.27-.37.42-.13.15-.24.29-.35.42-1.86,2.32-3.22,5.14-3.75,7.8-.08.4-.14.79-.18,1.17Z" style="fill:#fff;"/><path d="M53.74,98.44l17.94,10.36h0l16.56,9.55c1.36.8,2.48-.05,2.48-1.87v-37.91c0-1.82-1.11-3.95-2.48-4.74l-16.36-9.45-18.14-10.47-16.01-9.24c-1.37-.8-2.48.05-2.48,1.87v37.91c0,1.82,1.11,3.95,2.48,4.74l16.01,9.24ZM101.59,70.41v61.43c0,2.16-.71,3.67-1.82,4.32l-.03.02-.04.02s-.01,0-.02.01c-.92.47-2.1.39-3.39-.35L30.27,97.74c-2.95-1.72-5.36-6.29-5.36-10.24V26.08h.02l76.66,44.26v.07Z" style="fill:#fff;"/><path d="M101.59,61.29v9.04L24.93,26.08h-.02v-9.08c0-2.22.77-3.77,1.96-4.38,0,0,.01-.01.03-.01.92-.47,2.1-.39,3.37.35l8.25,4.76h.02c-.09.35-.17.69-.24,1.04-.57,2.82-.48,5.46.23,7.58.3.94.73,1.81,1.26,2.58.74,1.05,1.66,1.88,2.76,2.46.49.26,1.01.39,1.52.39,1.17,0,2.3-.63,2.89-1.74.85-1.59.24-3.57-1.35-4.41-.19-.09-.35-.24-.49-.45-.15-.21-.27-.48-.39-.83-.27-.84-.35-1.95-.21-3.19l33.58,19.39c-.09.35-.17.71-.25,1.06-.56,2.82-.48,5.46.23,7.59.3.94.73,1.81,1.26,2.58.75,1.06,1.68,1.89,2.77,2.46.49.27,1.01.39,1.52.39,1.17,0,2.3-.63,2.88-1.73.85-1.6.25-3.57-1.34-4.41-.17-.09-.34-.25-.49-.47-.15-.21-.27-.48-.39-.83-.27-.83-.34-1.91-.21-3.12l12.14,7.01c2.96,1.72,5.36,6.3,5.36,10.25Z" style="fill:#023452; stroke:#023452; stroke-linejoin:round;"/><path d="M90.72,106.68v9.8c0,1.82-1.11,2.67-2.48,1.87l-16.56-9.55v-12.9l18.67,10.78h.37Z" style="fill:#fff;"/><polygon points="90.72 106.08 90.72 106.68 90.35 106.68 71.68 95.9 71.68 82.32 90.35 93.1 90.72 93.1 90.72 106.08" style="fill:#fff;"/><path d="M90.72,90.69v2.41h-.37l-18.67-10.78-17.95-10.36-18.49-10.68v-14.73c0-1.82,1.11-2.67,2.48-1.87l16.01,9.24,18.14,10.47,16.36,9.45c1.36.79,2.48,2.91,2.48,4.74v12.12Z" style="fill:#f47d20; stroke:#023452; stroke-linejoin:round;"/><path d="M61.81,18.62l21.23,12.26s-.08.09-.11.13c-2.28,2.83-3.96,6.17-4.81,9.51l-33.58-19.39c.04-.35.1-.73.17-1.1.53-2.65,1.9-5.48,3.75-7.78.12-.14.23-.29.37-.44.14-.16.27-.31.41-.46l6.16,3.56.71.41,2.88,1.66,2.83,1.64Z" style="fill:#678597; stroke:#023452; stroke-linejoin:round;"/><polygon points="71.68 98.4 71.68 108.8 71.67 108.8 53.74 98.44 53.74 85.54 71.68 95.9 71.68 98.4" style="fill:#fff;"/><polygon points="71.68 82.32 71.68 95.9 53.74 85.54 53.74 84.94 53.74 71.96 71.68 82.32" style="fill:#fff;"/><path d="M61.41,4.89c2.23,3.18,2.47,7.98.65,13.17-.07.19-.15.38-.25.55l-2.83-1.64-2.88-1.66c.98-3.17.72-5.61-.03-6.67-.29-.41-.62-.59-1.14-.61-1.2-.07-3.38.79-5.7,3.32-.14.15-.27.3-.41.46-.13.15-.25.3-.37.44-1.85,2.3-3.21,5.14-3.75,7.78-.07.37-.13.75-.17,1.1-.14,1.24-.07,2.35.21,3.19.11.35.23.62.39.83.15.21.31.36.49.45,1.59.85,2.2,2.82,1.35,4.41-.59,1.1-1.72,1.74-2.89,1.74-.51,0-1.04-.13-1.52-.39-1.1-.58-2.02-1.41-2.76-2.46-.54-.77-.96-1.63-1.26-2.58-.71-2.12-.79-4.76-.23-7.58.07-.35.15-.69.24-1.03.85-3.37,2.54-6.71,4.82-9.55,0,0,.03-.04.04-.05.03-.03.05-.05.07-.08.13-.17.27-.34.41-.5,3.45-4.01,7.6-6.21,11.36-6.03,2.53.13,4.72,1.32,6.16,3.38Z" style="fill:#fff;"/><path d="M53.74,85.54v12.9l-16.01-9.24c-1.37-.79-2.48-2.91-2.48-4.74v-9.58l18.49,10.67Z" style="fill:#fff;"/><polygon points="53.74 84.94 53.74 85.54 35.25 74.88 35.25 74.27 35.25 61.28 53.74 71.96 53.74 84.94" style="fill:#fff;"/><path d="M43.48,8.04s-.05.05-.07.08c0,0-.03.04-.04.05-2.28,2.84-3.97,6.19-4.82,9.55h-.02s-8.25-4.76-8.25-4.76c-1.28-.74-2.46-.82-3.37-.35v-.03s11.35-5.93,11.35-5.93c.93-.48,2.12-.4,3.41.35l1.81,1.04h0Z" style="fill:#678597; stroke:#023452; stroke-linejoin:round;"/><polyline points="35.25 74.88 53.74 85.54 71.68 95.9 90.35 106.68" style="fill:none; stroke:#c2ced6; stroke-linecap:round; stroke-linejoin:round; stroke-width:2.5px;"/><polyline points="53.74 71.96 53.74 84.94 53.74 85.54 53.74 98.44 53.74 98.46" style="fill:none; stroke:#c2ced6; stroke-linecap:round; stroke-linejoin:round; stroke-width:2.5px;"/><polyline points="71.68 82.32 71.68 95.9 71.68 98.4 71.68 108.8" style="fill:none; stroke:#c2ced6; stroke-linecap:round; stroke-linejoin:round; stroke-width:2.5px;"/><path d="M83.98,43.97l.11.07,12.14,7.01c2.96,1.72,5.36,6.3,5.36,10.25v70.54c0,2.16-.71,3.67-1.82,4.32" style="fill:none; stroke:#023452; stroke-linecap:round; stroke-linejoin:round; stroke-width:2px;"/><polyline points="24.93 26.08 101.59 70.34 101.72 70.41 113.01 63.89 113.09 63.85" style="fill:none; stroke:#023452; stroke-linecap:round; stroke-linejoin:round; stroke-width:2px;"/><path d="M26.89,12.57l11.36-5.93c.93-.48,2.12-.4,3.41.35l1.81,1.04" style="fill:none; stroke:#023452; stroke-linecap:round; stroke-linejoin:round; stroke-width:2px;"/><polyline points="49.23 11.35 55.39 14.91 56.1 15.32 58.98 16.98 61.81 18.62 83.03 30.87" style="fill:none; stroke:#023452; stroke-linecap:round; stroke-linejoin:round; stroke-width:2px;"/><path d="M26.87,12.62s.01-.01.03-.01c.92-.47,2.1-.39,3.37.35l8.25,4.76" style="fill:none; stroke:#023452; stroke-linecap:round; stroke-linejoin:round; stroke-width:2px;"/><path d="M88.73,34.23h.02s6.21,3.59,6.21,3.59l.67.39,2.85,1.64,2.86,1.65,6.33,3.65c2.95,1.7,5.35,6.29,5.35,10.23v70.5c0,2.22-.77,3.77-1.95,4.39l-11.3,5.88-.03.02-.04.02s-.01,0-.02.01c-.92.47-2.1.39-3.39-.35L30.27,97.74c-2.95-1.72-5.36-6.29-5.36-10.24V17c0-2.22.77-3.77,1.96-4.38" style="fill:none; stroke:#023452; stroke-linecap:round; stroke-linejoin:round; stroke-width:2px;"/><line x1="44.53" y1="21.13" x2="78.12" y2="40.52" style="fill:none; stroke:#023452; stroke-linecap:round; stroke-linejoin:round; stroke-width:2px;"/><path d="M95.66,38.16c.99-3.17.73-5.61-.02-6.67-.29-.41-.63-.59-1.14-.62-1.21-.05-3.41.8-5.74,3.36-.13.14-.25.27-.37.42-.13.15-.24.29-.35.42-1.86,2.32-3.22,5.14-3.75,7.8-.08.4-.14.79-.18,1.17-.13,1.21-.06,2.3.21,3.12.11.35.24.61.39.83.15.21.32.37.49.47,1.59.84,2.2,2.81,1.34,4.41-.58,1.1-1.71,1.73-2.88,1.73-.51,0-1.04-.12-1.52-.39-1.09-.57-2.02-1.4-2.77-2.46-.53-.77-.96-1.63-1.26-2.58-.71-2.13-.79-4.76-.23-7.59.07-.35.15-.71.25-1.06.85-3.35,2.54-6.69,4.81-9.51.03-.05.07-.09.11-.13.13-.15.27-.33.41-.49,3.43-4.01,7.56-6.2,11.35-6.04,2.54.12,4.72,1.32,6.17,3.39,2.24,3.17,2.47,7.98.65,13.16-.07.2-.15.39-.25.56" style="fill:none; stroke:#023452; stroke-linecap:round; stroke-linejoin:round; stroke-width:2px;"/><path d="M56.1,15.32c.98-3.17.72-5.61-.03-6.67-.29-.41-.62-.59-1.14-.61-1.2-.07-3.38.79-5.7,3.32-.14.15-.27.3-.41.46-.13.15-.25.3-.37.44-1.85,2.3-3.21,5.14-3.75,7.78-.07.37-.13.75-.17,1.1-.14,1.24-.07,2.35.21,3.19.11.35.23.62.39.83.15.21.31.36.49.45,1.59.85,2.2,2.82,1.35,4.41-.59,1.1-1.72,1.74-2.89,1.74-.51,0-1.04-.13-1.52-.39-1.1-.58-2.02-1.41-2.76-2.46-.54-.77-.96-1.63-1.26-2.58-.71-2.12-.79-4.76-.23-7.58.07-.35.15-.69.24-1.03.85-3.37,2.54-6.71,4.82-9.55,0,0,.03-.04.04-.05.03-.03.05-.05.07-.08.13-.17.27-.34.41-.5,3.45-4.01,7.6-6.21,11.36-6.03,2.53.13,4.72,1.32,6.16,3.38,2.23,3.18,2.47,7.98.65,13.17-.07.19-.15.38-.25.55" style="fill:none; stroke:#023452; stroke-linecap:round; stroke-linejoin:round; stroke-width:2px;"/><path d="M90.72,93.1v23.38c0,1.82-1.11,2.67-2.48,1.87l-16.56-9.55h0l-17.94-10.36-16.01-9.24c-1.37-.79-2.48-2.91-2.48-4.74v-37.91c0-1.82,1.11-2.67,2.48-1.87l16.01,9.24,18.14,10.47,16.36,9.45c1.36.79,2.48,2.91,2.48,4.74v14.53Z" style="fill:none; stroke:#023452; stroke-linecap:round; stroke-linejoin:round; stroke-width:2px;"/><polyline points="35.25 61.28 53.74 71.96 71.68 82.32 90.35 93.1" style="fill:none; stroke:#023452; stroke-linecap:round; stroke-linejoin:round; stroke-width:2px;"/><line x1="45.18" y1="57.21" x2="80.27" y2="77.47" style="fill:none; stroke:#023452; stroke-linecap:round; stroke-linejoin:round; stroke-width:2px;"/><polyline points="75.97 71.18 80.27 77.47 75.97 78.79" style="fill:none; stroke:#023452; stroke-linecap:round; stroke-linejoin:round; stroke-width:2px;"/></svg>