<svg xmlns="http://www.w3.org/2000/svg" viewBox="0 0 760 700" font-family="Lato, Arial, sans-serif" role="img" aria-labelledby="ttl">
<title id="ttl">ELIXIR-UK stakeholder map — earlier version</title>
<rect x="0" y="0" width="760" height="700" fill="#ffffff"/>
<text x="380.0" y="38" text-anchor="middle" font-size="20" font-weight="700" fill="#14283c">ELIXIR-UK stakeholder map — earlier version</text>
<rect x="110" y="70" width="300" height="270" fill="#dbe7f0"/>
<text x="126" y="100" font-size="18" font-weight="700" fill="#14283c">Keep satisfied</text>
<text x="126" y="118" font-size="12" font-style="italic" fill="#5a6b7a">high influence · low interest</text>
<text x="126" y="146" font-size="13" fill="#14283c">&#8226;&#160; ELIXIR Hub &amp; other Nodes</text>
<text x="126" y="168" font-size="13" fill="#14283c">&#8226;&#160; Decision-makers at other Nodes</text>
<rect x="410" y="70" width="300" height="270" fill="#fbe3c7"/>
<text x="426" y="100" font-size="18" font-weight="700" fill="#14283c">Manage closely</text>
<text x="426" y="118" font-size="12" font-style="italic" fill="#5a6b7a">high influence · high interest</text>
<text x="426" y="146" font-size="13" fill="#14283c">&#8226;&#160; Funders (councils, charities, EU)</text>
<text x="426" y="168" font-size="13" fill="#14283c">&#8226;&#160; Active members (PIs, devs, coordinators)</text>
<rect x="110" y="340" width="300" height="270" fill="#ececec"/>
<text x="126" y="370" font-size="18" font-weight="700" fill="#14283c">Monitor</text>
<text x="126" y="388" font-size="12" font-style="italic" fill="#5a6b7a">low influence · low interest</text>
<text x="126" y="416" font-size="13" fill="#14283c">&#8226;&#160; Potential new members</text>
<text x="126" y="438" font-size="13" fill="#14283c">&#8226;&#160; Other potential organisations</text>
<text x="126" y="460" font-size="13" fill="#14283c">&#8226;&#160; Media &amp; public</text>
<rect x="410" y="340" width="300" height="270" fill="#d9ece0"/>
<text x="426" y="370" font-size="18" font-weight="700" fill="#14283c">Keep informed</text>
<text x="426" y="388" font-size="12" font-style="italic" fill="#5a6b7a">low influence · high interest</text>
<text x="426" y="416" font-size="13" fill="#14283c">&#8226;&#160; Inactive members</text>
<text x="426" y="438" font-size="13" fill="#14283c">&#8226;&#160; Global resource users</text>
<text x="426" y="460" font-size="13" fill="#14283c">&#8226;&#160; Other UK data orgs (SSI, HDR UK, RDA-UK)</text>
<rect x="110" y="70" width="600" height="540" fill="none" stroke="#14283c" stroke-width="2"/>
<line x1="410" y1="70" x2="410" y2="610" stroke="#fff" stroke-width="2"/>
<line x1="110" y1="340" x2="710" y2="340" stroke="#fff" stroke-width="2"/>
<text x="410" y="656" text-anchor="middle" font-size="15" font-weight="700" fill="#14283c">Interest &#8594;</text>
<text x="116" y="634" font-size="11" fill="#5a6b7a">Low</text>
<text x="704" y="634" text-anchor="end" font-size="11" fill="#5a6b7a">High</text>
<text x="44" y="340" text-anchor="middle" font-size="15" font-weight="700" fill="#14283c" transform="rotate(-90 44 340)">Influence &#8594;</text>
<text x="78" y="606" font-size="11" fill="#5a6b7a">Low</text>
<text x="78" y="84" font-size="11" fill="#5a6b7a">High</text>
</svg>